<?xml version="1.0" encoding="UTF-8"?>
<svg id="_Слой_1" data-name="Слой 1" xmlns="http://www.w3.org/2000/svg" viewBox="0 0 283.46 283.46">
  <defs>
    <style>
      .cls-1 {
        fill: #bbc3c6;
      }

      .cls-1, .cls-2, .cls-3 {
        stroke-width: 0px;
      }

      .cls-2 {
        fill: #444d6a;
      }

      .cls-3 {
        fill: #ecf0f1;
      }
    </style>
  </defs>
  <path class="cls-3" d="M34.61,230.13c6.34,7.68,13.47,14.66,21.3,20.85,23.64,18.57,53.44,29.65,85.82,29.65,65,0,119.63-44.67,134.74-105.03l-29.83-39.24-24.43,14.38h0s-41.97-61.79-41.97-61.79h0s-62.94,80.46-62.94,80.46h-.01s-38.79.01-38.79.01l-43.9,60.71Z"/>
  <g>
    <path class="cls-2" d="M88.45,188.92l-1.25,20.64,30.11-40.14h-38.8l4.39,20.47c2.85-.47,5.56-.97,5.56-.97Z"/>
    <path class="cls-1" d="M141.73.32C63.76.32.32,63.76.32,141.73c0,32.81,11.49,64.77,32.35,90,6.44,7.79,13.73,14.93,21.69,21.22,25.14,19.75,55.35,30.19,87.38,30.19,65.01,0,121.42-43.97,137.18-106.93,2.81-11.14,4.23-22.74,4.23-34.48C283.14,63.76,219.71.32,141.73.32ZM274.5,173l-27.86-36.64-24.43,14.38-38.81,21.55-3.16-83.33-52.86,97.72,8.62,12.93,12.93,21.55-46.01,41.67-31.59-30.16-17.24-1.43-1.46-26.01-.33.46-15.78,21.79-.39.55c-19.85-24.25-30.78-54.86-30.78-86.28C5.35,66.53,66.53,5.35,141.73,5.35s136.38,61.18,136.38,136.38c0,10.63-1.23,21.14-3.61,31.27Z"/>
    <polygon class="cls-2" points="222.21 150.74 183.41 172.3 180.24 88.95 222.21 150.74"/>
    <polygon class="cls-2" points="158.79 146.03 155.54 209.94 139.73 185.52 158.79 146.03"/>
    <polygon class="cls-2" points="243.77 216.85 223.65 205.35 183.41 248.45 170.48 222.59 196.34 189.54 227.95 182.36 243.77 216.85"/>
    <path class="cls-3" d="M256.69,178.04s-12.93,11.5-14.37,11.5c0-1.44-4.95-32.57-4.95-32.57l19.32,21.07Z"/>
    <polygon class="cls-1" points="113.76 210.67 111.4 232.65 100.07 231.21 113.76 210.67"/>
  </g>
</svg>