<?xml version="1.0" encoding="UTF-8"?>
<svg id="Layer_1" data-name="Layer 1" xmlns="http://www.w3.org/2000/svg" viewBox="0 0 512 512">
  <defs>
    <style>
      .cls-1 {
        fill: #bdc3c7;
      }

      .cls-1, .cls-2, .cls-3, .cls-4 {
        stroke-width: 0px;
      }

      .cls-2 {
        fill: #fff;
      }

      .cls-3 {
        fill: #414f6b;
      }

      .cls-4 {
        fill: #ecf0f1;
      }
    </style>
  </defs>
  <g>
    <path class="cls-2" d="M507.1,256c0,19.53-2.23,38.54-6.45,56.79-92.48,49.67-114.57,46.73-233.72,46.73-77.02,0-156.86,112.9-202.92,58.32C27.13,374.13,4.9,317.66,4.9,256,4.9,117.32,117.32,4.9,256,4.9s251.1,112.42,251.1,251.1Z"/>
    <path class="cls-1" d="M256,507.1c119.14,0,218.91-82.98,244.65-194.31l-47.15-67.58-44.48,28.44-82.39-115.74-139.28,178.51-49.04-19.62-74.28,101.01c46.06,54.59,114.96,89.27,191.98,89.27Z"/>
    <polygon class="cls-3" points="326.62 157.92 332.61 316.81 409.01 273.66 326.62 157.92"/>
    <polygon class="cls-4" points="92.8 418.4 138.3 430.17 182.55 484.6 263.46 413.98 231.09 338.95 326.62 157.92 187.34 336.43 138.3 316.81 89.26 383.51 92.8 418.4"/>
    <polygon class="cls-3" points="138.3 316.81 138.3 355.07 159.01 346.31 148.65 390.44 202.65 316.81 138.3 316.81"/>
    <polygon class="cls-3" points="309.07 411.04 347.32 353.63 414.99 332.51 447.36 399 409.01 371.77 332.61 452.23 309.07 411.04"/>
    <polygon class="cls-3" points="292.89 262.45 256 337.48 282.33 380.15 292.89 262.45"/>
    <polygon class="cls-4" points="428.24 287.46 447.36 344.84 470.9 321.3 428.24 287.46"/>
    <polygon class="cls-1" points="182.55 415.45 207.94 380.15 195.24 424.28 182.55 415.45"/>
  </g>
  <path class="cls-1" d="M256,512c-68.38,0-132.67-26.63-181.02-74.98C26.63,388.67,0,324.38,0,256S26.63,123.33,74.98,74.98C123.33,26.63,187.62,0,256,0s132.67,26.63,181.02,74.98c48.35,48.35,74.98,112.64,74.98,181.02s-26.63,132.67-74.98,181.02c-48.35,48.35-112.64,74.98-181.02,74.98ZM256,9.81C120.25,9.81,9.81,120.25,9.81,256s110.44,246.19,246.19,246.19,246.19-110.44,246.19-246.19S391.75,9.81,256,9.81Z"/>
</svg>