<?xml version="1.0" encoding="UTF-8"?>
<svg id="_Слой_1" data-name="Слой 1" xmlns="http://www.w3.org/2000/svg" viewBox="0 0 1026.14 283.46">
  <defs>
    <style>
      .cls-1 {
        fill: #4d4d4d;
      }

      .cls-1, .cls-2, .cls-3, .cls-4, .cls-5 {
        stroke-width: 0px;
      }

      .cls-2 {
        fill: #bbc3c6;
      }

      .cls-3 {
        fill: #404e6c;
      }

      .cls-4 {
        fill: #444d6a;
      }

      .cls-5 {
        fill: #ecf0f1;
      }
    </style>
  </defs>
  <g>
    <path class="cls-5" d="M34.88,230.33c6.36,7.7,13.5,14.69,21.35,20.9,23.69,18.61,53.56,29.72,86.02,29.72,65.15,0,119.9-44.77,135.04-105.27l-29.9-39.33-24.48,14.42h0s-42.06-61.93-42.06-61.93h0s-63.08,80.64-63.08,80.64h-.01s-38.87.01-38.87.01l-44,60.85Z"/>
    <g>
      <path class="cls-4" d="M88.84,189.03l-1.25,20.69,30.17-40.23h-38.89l4.4,20.52c2.86-.47,5.57-.97,5.57-.97Z"/>
      <path class="cls-2" d="M142.25,0C64.1,0,.52,63.58.52,141.73c0,32.88,11.51,64.92,32.42,90.21,6.45,7.81,13.76,14.97,21.74,21.27,25.19,19.79,55.48,30.25,87.57,30.25,65.15,0,121.69-44.07,137.49-107.17,2.82-11.17,4.24-22.8,4.24-34.56C283.98,63.58,220.4,0,142.25,0ZM275.32,173.08l-27.92-36.73-24.48,14.42-38.9,21.6-3.16-83.52-52.98,97.94,8.64,12.96,12.96,21.59-46.11,41.76-31.66-30.23-17.28-1.43-1.46-26.07-.33.46-15.82,21.84-.39.55c-19.89-24.3-30.85-54.98-30.85-86.47C5.56,66.36,66.88,5.04,142.25,5.04s136.69,61.32,136.69,136.69c0,10.65-1.23,21.18-3.62,31.34Z"/>
      <polygon class="cls-4" points="222.91 150.76 184.02 172.37 180.84 88.83 222.91 150.76"/>
      <polygon class="cls-4" points="159.34 146.04 156.09 210.1 140.24 185.62 159.34 146.04"/>
      <polygon class="cls-4" points="244.51 217.02 224.35 205.49 184.02 248.7 171.06 222.77 196.98 189.65 228.66 182.45 244.51 217.02"/>
      <path class="cls-5" d="M257.47,178.13s-12.96,11.52-14.4,11.52c0-1.44-4.96-32.64-4.96-32.64l19.36,21.12Z"/>
      <polygon class="cls-2" points="114.21 210.82 111.85 232.86 100.49 231.41 114.21 210.82"/>
    </g>
  </g>
  <g>
    <path class="cls-1" d="M348.25,9.26h18.74v102.23h30.84v17.04h-49.58V9.26Z"/>
    <path class="cls-1" d="M410.66,37.89c0-9.65,2.44-17.06,7.33-22.23,4.88-5.17,11.93-7.75,21.13-7.75s16.24,2.58,21.13,7.75c4.88,5.17,7.33,12.58,7.33,22.23v62.02c0,9.66-2.44,17.07-7.33,22.24-4.89,5.17-11.93,7.75-21.13,7.75s-16.25-2.58-21.13-7.75c-4.89-5.17-7.33-12.58-7.33-22.24v-62.02ZM429.4,101.1c0,4.32.88,7.36,2.64,9.12,1.76,1.76,4.12,2.64,7.07,2.64s5.31-.88,7.07-2.64c1.76-1.76,2.64-4.8,2.64-9.12V36.69c0-4.32-.88-7.35-2.64-9.12-1.76-1.76-4.12-2.64-7.07-2.64s-5.31.88-7.07,2.64c-1.76,1.76-2.64,4.8-2.64,9.12v64.41Z"/>
    <path class="cls-1" d="M482.24,37.89c0-9.65,2.3-17.06,6.9-22.23,4.6-5.17,11.5-7.75,20.7-7.75s16.1,2.58,20.7,7.75c4.6,5.17,6.9,12.58,6.9,22.23v3.75h-17.72v-4.94c0-4.32-.83-7.35-2.47-9.12-1.65-1.76-3.95-2.64-6.9-2.64s-5.26.88-6.9,2.64c-1.65,1.76-2.47,4.8-2.47,9.12,0,4.09.91,7.7,2.73,10.82,1.82,3.13,4.09,6.08,6.82,8.86,2.73,2.78,5.65,5.57,8.77,8.35,3.12,2.78,6.05,5.82,8.78,9.12,2.73,3.3,5,7.04,6.82,11.25,1.82,4.2,2.73,9.15,2.73,14.82,0,9.66-2.36,17.07-7.07,22.24-4.71,5.17-11.67,7.75-20.87,7.75s-16.16-2.58-20.87-7.75c-4.71-5.17-7.07-12.58-7.07-22.24v-7.33h17.72v8.52c0,4.32.88,7.33,2.64,9.03,1.76,1.7,4.12,2.56,7.07,2.56s5.31-.85,7.07-2.56c1.76-1.7,2.64-4.71,2.64-9.03,0-4.09-.91-7.69-2.73-10.82-1.82-3.12-4.09-6.08-6.82-8.86-2.73-2.78-5.65-5.56-8.77-8.35-3.13-2.78-6.05-5.82-8.77-9.12-2.73-3.29-5-7.04-6.82-11.25-1.82-4.2-2.73-9.14-2.73-14.82Z"/>
    <path class="cls-1" d="M614.15,128.53h-18.91l-3.24-21.64h-23l-3.24,21.64h-17.21l19.08-119.27h27.43l19.08,119.27ZM571.38,90.71h18.06l-9.03-60.32-9.03,60.32Z"/>
    <path class="cls-1" d="M644.97,42.15v86.39h-16.87V9.26h23.51l19.25,71.39V9.26h16.7v119.27h-19.25l-23.34-86.39Z"/>
    <path class="cls-1" d="M732.96,62.08h26.24v37.82c0,9.66-2.36,17.07-7.07,22.24-4.71,5.17-11.67,7.75-20.87,7.75s-16.16-2.58-20.87-7.75c-4.71-5.17-7.07-12.58-7.07-22.24v-62.02c0-9.65,2.36-17.06,7.07-22.23,4.71-5.17,11.67-7.75,20.87-7.75s16.16,2.58,20.87,7.75c4.71,5.17,7.07,12.58,7.07,22.23v11.59h-17.72v-12.78c0-4.32-.88-7.35-2.64-9.12-1.76-1.76-4.12-2.64-7.07-2.64s-5.31.88-7.07,2.64c-1.76,1.76-2.64,4.8-2.64,9.12v64.41c0,4.32.88,7.33,2.64,9.03,1.76,1.7,4.12,2.56,7.07,2.56s5.31-.85,7.07-2.56c1.76-1.7,2.64-4.71,2.64-9.03v-21.98h-8.52v-17.04Z"/>
    <path class="cls-1" d="M793.63,59.52h25.73v17.04h-25.73v34.93h32.37v17.04h-51.12V9.26h51.12v17.04h-32.37v33.22Z"/>
    <path class="cls-1" d="M841.24,9.26h18.74v102.23h30.84v17.04h-49.58V9.26Z"/>
    <path class="cls-1" d="M923.36,59.52h25.73v17.04h-25.73v34.93h32.37v17.04h-51.12V9.26h51.12v17.04h-32.37v33.22Z"/>
    <path class="cls-1" d="M969.91,37.89c0-9.65,2.3-17.06,6.9-22.23,4.6-5.17,11.5-7.75,20.7-7.75s16.1,2.58,20.7,7.75c4.6,5.17,6.9,12.58,6.9,22.23v3.75h-17.72v-4.94c0-4.32-.83-7.35-2.47-9.12-1.65-1.76-3.95-2.64-6.9-2.64s-5.26.88-6.9,2.64c-1.65,1.76-2.47,4.8-2.47,9.12,0,4.09.91,7.7,2.73,10.82,1.82,3.13,4.09,6.08,6.82,8.86,2.73,2.78,5.65,5.57,8.77,8.35,3.12,2.78,6.05,5.82,8.78,9.12,2.73,3.3,5,7.04,6.82,11.25,1.82,4.2,2.73,9.15,2.73,14.82,0,9.66-2.36,17.07-7.07,22.24-4.71,5.17-11.67,7.75-20.87,7.75s-16.16-2.58-20.87-7.75c-4.71-5.17-7.07-12.58-7.07-22.24v-7.33h17.72v8.52c0,4.32.88,7.33,2.64,9.03,1.76,1.7,4.12,2.56,7.07,2.56s5.31-.85,7.07-2.56c1.76-1.7,2.64-4.71,2.64-9.03,0-4.09-.91-7.69-2.73-10.82-1.82-3.12-4.09-6.08-6.82-8.86-2.73-2.78-5.65-5.56-8.77-8.35-3.13-2.78-6.05-5.82-8.77-9.12-2.73-3.29-5-7.04-6.82-11.25-1.82-4.2-2.73-9.14-2.73-14.82Z"/>
    <path class="cls-3" d="M390.68,237.24l13.53-89.66h27.6v126.29h-18.76v-90.56l-13.71,90.56h-18.76l-14.79-89.3v89.3h-17.32v-126.29h27.6l14.61,89.66Z"/>
    <path class="cls-3" d="M451.55,177.88c0-10.22,2.58-18.07,7.76-23.54,5.17-5.47,12.63-8.21,22.37-8.21s17.2,2.74,22.37,8.21c5.17,5.47,7.76,13.32,7.76,23.54v65.67c0,10.22-2.59,18.07-7.76,23.54-5.17,5.47-12.63,8.21-22.37,8.21s-17.2-2.73-22.37-8.21c-5.17-5.47-7.76-13.32-7.76-23.54v-65.67ZM471.4,244.81c0,4.57.93,7.79,2.8,9.65,1.86,1.87,4.36,2.8,7.49,2.8s5.62-.93,7.49-2.8c1.86-1.86,2.8-5.08,2.8-9.65v-68.19c0-4.57-.93-7.79-2.8-9.65-1.87-1.86-4.36-2.8-7.49-2.8s-5.62.93-7.49,2.8c-1.87,1.87-2.8,5.08-2.8,9.65v68.19Z"/>
    <path class="cls-3" d="M550.65,147.57v97.42c0,4.57.93,7.76,2.8,9.56,1.86,1.8,4.36,2.71,7.49,2.71s5.62-.9,7.49-2.71c1.86-1.8,2.8-4.99,2.8-9.56v-97.42h18.76v96.16c0,10.22-2.5,18.07-7.49,23.54-4.99,5.47-12.36,8.21-22.1,8.21s-17.11-2.73-22.1-8.21c-4.99-5.47-7.49-13.32-7.49-23.54v-96.16h19.84Z"/>
    <path class="cls-3" d="M627.88,182.39v91.47h-17.86v-126.29h24.9l20.39,75.59v-75.59h17.68v126.29h-20.39l-24.72-91.47Z"/>
    <path class="cls-3" d="M690.3,147.57h61.34v18.04h-20.75v108.24h-19.85v-108.24h-20.75v-18.04Z"/>
    <path class="cls-3" d="M826.91,273.86h-20.03l-3.43-22.91h-24.35l-3.43,22.91h-18.22l20.2-126.29h29.05l20.21,126.29ZM781.62,233.81h19.12l-9.56-63.86-9.56,63.86Z"/>
    <path class="cls-3" d="M844.64,147.57h19.84v126.29h-19.84v-126.29Z"/>
    <path class="cls-3" d="M902.82,182.39v91.47h-17.86v-126.29h24.9l20.39,75.59v-75.59h17.68v126.29h-20.39l-24.72-91.47Z"/>
    <path class="cls-3" d="M966.99,177.88c0-10.22,2.44-18.07,7.31-23.54,4.87-5.47,12.18-8.21,21.92-8.21s17.05,2.74,21.92,8.21c4.87,5.47,7.31,13.32,7.31,23.54v3.97h-18.76v-5.23c0-4.57-.87-7.79-2.62-9.65-1.75-1.86-4.18-2.8-7.31-2.8s-5.56.93-7.31,2.8c-1.75,1.87-2.62,5.08-2.62,9.65,0,4.33.96,8.15,2.89,11.46,1.92,3.31,4.33,6.44,7.22,9.38,2.89,2.95,5.98,5.9,9.29,8.84,3.31,2.95,6.4,6.17,9.29,9.65,2.89,3.49,5.29,7.46,7.22,11.91,1.92,4.45,2.89,9.68,2.89,15.7,0,10.22-2.5,18.07-7.49,23.54-4.99,5.47-12.36,8.21-22.1,8.21s-17.11-2.73-22.1-8.21c-4.99-5.47-7.49-13.32-7.49-23.54v-7.76h18.76v9.02c0,4.57.93,7.76,2.8,9.56,1.86,1.8,4.36,2.71,7.49,2.71s5.62-.9,7.49-2.71c1.86-1.8,2.8-4.99,2.8-9.56,0-4.33-.96-8.15-2.89-11.46-1.93-3.31-4.33-6.43-7.22-9.38-2.89-2.95-5.98-5.89-9.29-8.84-3.31-2.95-6.41-6.16-9.29-9.65-2.89-3.49-5.29-7.46-7.22-11.91-1.93-4.45-2.89-9.68-2.89-15.7Z"/>
  </g>
</svg>