<?xml version="1.0" encoding="UTF-8"?>
<svg id="_Слой_1" data-name="Слой 1" xmlns="http://www.w3.org/2000/svg" viewBox="0 0 720 283.46">
  <defs>
    <style>
      .cls-1 {
        fill: #4d4d4d;
      }

      .cls-1, .cls-2 {
        stroke-width: 0px;
      }

      .cls-2 {
        fill: #404e6c;
      }
    </style>
  </defs>
  <path class="cls-1" d="M1.21,1.44h19.85v108.3h32.67v18.05H1.21V1.44Z"/>
  <path class="cls-1" d="M67.33,31.77c0-10.23,2.59-18.08,7.76-23.55C80.26,2.74,87.72,0,97.47,0s17.21,2.74,22.38,8.21c5.17,5.48,7.76,13.33,7.76,23.55v65.7c0,10.23-2.59,18.08-7.76,23.56-5.17,5.48-12.64,8.21-22.38,8.21s-17.21-2.74-22.38-8.21c-5.17-5.47-7.76-13.33-7.76-23.56V31.77ZM87.18,98.73c0,4.57.93,7.79,2.8,9.66,1.86,1.87,4.36,2.8,7.49,2.8s5.62-.93,7.49-2.8c1.86-1.86,2.8-5.08,2.8-9.66V30.5c0-4.57-.93-7.79-2.8-9.66-1.87-1.86-4.36-2.8-7.49-2.8s-5.63.93-7.49,2.8c-1.87,1.87-2.8,5.09-2.8,9.66v68.23Z"/>
  <path class="cls-1" d="M143.15,31.77c0-10.23,2.44-18.08,7.31-23.55C155.34,2.74,162.65,0,172.39,0s17.06,2.74,21.93,8.21c4.87,5.48,7.31,13.33,7.31,23.55v3.97h-18.77v-5.23c0-4.57-.88-7.79-2.62-9.66-1.75-1.86-4.18-2.8-7.31-2.8s-5.57.93-7.31,2.8c-1.75,1.87-2.62,5.09-2.62,9.66,0,4.33.96,8.15,2.89,11.46,1.92,3.31,4.33,6.44,7.22,9.39,2.89,2.95,5.98,5.9,9.3,8.84,3.31,2.95,6.41,6.17,9.3,9.66,2.89,3.49,5.29,7.46,7.22,11.91,1.92,4.45,2.89,9.69,2.89,15.7,0,10.23-2.5,18.08-7.49,23.56-4.99,5.48-12.36,8.21-22.11,8.21s-17.12-2.74-22.11-8.21c-4.99-5.47-7.49-13.33-7.49-23.56v-7.76h18.77v9.02c0,4.57.93,7.76,2.8,9.57,1.86,1.81,4.36,2.71,7.49,2.71s5.62-.9,7.49-2.71c1.86-1.81,2.8-4.99,2.8-9.57,0-4.33-.96-8.15-2.89-11.46-1.93-3.31-4.33-6.44-7.22-9.39-2.89-2.95-5.99-5.89-9.3-8.84-3.31-2.95-6.41-6.17-9.3-9.66-2.89-3.49-5.3-7.46-7.22-11.91-1.93-4.45-2.89-9.68-2.89-15.7Z"/>
  <path class="cls-1" d="M282.89,127.79h-20.04l-3.43-22.92h-24.37l-3.43,22.92h-18.23L233.62,1.44h29.06l20.22,126.35ZM237.59,87.72h19.13l-9.57-63.9-9.57,63.9Z"/>
  <path class="cls-1" d="M315.54,36.28v91.51h-17.87V1.44h24.91l20.4,75.63V1.44h17.69v126.35h-20.4l-24.73-91.51Z"/>
  <path class="cls-1" d="M408.75,57.4h27.8v40.07c0,10.23-2.5,18.08-7.49,23.56-4.99,5.48-12.36,8.21-22.11,8.21s-17.12-2.74-22.11-8.21c-4.99-5.47-7.49-13.33-7.49-23.56V31.77c0-10.23,2.5-18.08,7.49-23.55C389.83,2.74,397.2,0,406.95,0s17.12,2.74,22.11,8.21c4.99,5.48,7.49,13.33,7.49,23.55v12.27h-18.77v-13.54c0-4.57-.93-7.79-2.8-9.66-1.87-1.86-4.36-2.8-7.49-2.8s-5.63.93-7.49,2.8c-1.87,1.87-2.8,5.09-2.8,9.66v68.23c0,4.57.93,7.76,2.8,9.57,1.86,1.81,4.36,2.71,7.49,2.71s5.62-.9,7.49-2.71c1.86-1.81,2.8-4.99,2.8-9.57v-23.28h-9.02v-18.05Z"/>
  <path class="cls-1" d="M473.03,54.69h27.25v18.05h-27.25v37h34.29v18.05h-54.15V1.44h54.15v18.05h-34.29v35.2Z"/>
  <path class="cls-1" d="M523.46,1.44h19.85v108.3h32.67v18.05h-52.52V1.44Z"/>
  <path class="cls-1" d="M610.46,54.69h27.25v18.05h-27.25v37h34.29v18.05h-54.15V1.44h54.15v18.05h-34.29v35.2Z"/>
  <path class="cls-1" d="M659.77,31.77c0-10.23,2.44-18.08,7.31-23.55C671.95,2.74,679.26,0,689.01,0s17.06,2.74,21.93,8.21c4.87,5.48,7.31,13.33,7.31,23.55v3.97h-18.77v-5.23c0-4.57-.88-7.79-2.62-9.66-1.75-1.86-4.18-2.8-7.31-2.8s-5.57.93-7.31,2.8c-1.75,1.87-2.62,5.09-2.62,9.66,0,4.33.96,8.15,2.89,11.46,1.92,3.31,4.33,6.44,7.22,9.39,2.89,2.95,5.98,5.9,9.3,8.84,3.31,2.95,6.41,6.17,9.3,9.66,2.89,3.49,5.29,7.46,7.22,11.91,1.92,4.45,2.89,9.69,2.89,15.7,0,10.23-2.5,18.08-7.49,23.56-4.99,5.48-12.36,8.21-22.11,8.21s-17.12-2.74-22.11-8.21c-4.99-5.47-7.49-13.33-7.49-23.56v-7.76h18.77v9.02c0,4.57.93,7.76,2.8,9.57,1.86,1.81,4.36,2.71,7.49,2.71s5.62-.9,7.49-2.71c1.86-1.81,2.8-4.99,2.8-9.57,0-4.33-.96-8.15-2.89-11.46-1.93-3.31-4.33-6.44-7.22-9.39-2.89-2.95-5.99-5.89-9.3-8.84-3.31-2.95-6.41-6.17-9.3-9.66-2.89-3.49-5.3-7.46-7.22-11.91-1.93-4.45-2.89-9.68-2.89-15.7Z"/>
  <path class="cls-2" d="M46.16,242.95l14.33-94.98h29.24v133.78h-19.88v-95.94l-14.52,95.94h-19.88l-15.67-94.6v94.6H1.44v-133.78h29.24l15.48,94.98Z"/>
  <path class="cls-2" d="M110.65,180.07c0-10.83,2.74-19.14,8.22-24.94,5.48-5.8,13.38-8.7,23.7-8.7s18.22,2.9,23.7,8.7c5.48,5.8,8.22,14.11,8.22,24.94v69.56c0,10.83-2.74,19.14-8.22,24.94-5.48,5.8-13.38,8.7-23.7,8.7s-18.22-2.9-23.7-8.7c-5.48-5.8-8.22-14.11-8.22-24.94v-69.56ZM131.67,250.97c0,4.84.99,8.25,2.96,10.23,1.97,1.98,4.62,2.96,7.93,2.96s5.95-.99,7.93-2.96c1.97-1.97,2.96-5.38,2.96-10.23v-72.24c0-4.84-.99-8.25-2.96-10.23-1.98-1.97-4.62-2.96-7.93-2.96s-5.96.99-7.93,2.96c-1.98,1.98-2.96,5.38-2.96,10.23v72.24Z"/>
  <path class="cls-2" d="M215.63,147.96v103.2c0,4.84.99,8.22,2.96,10.13,1.97,1.91,4.62,2.87,7.93,2.87s5.95-.96,7.93-2.87c1.97-1.91,2.96-5.29,2.96-10.13v-103.2h19.88v101.86c0,10.83-2.65,19.14-7.93,24.94-5.29,5.8-13.09,8.7-23.41,8.7s-18.13-2.9-23.41-8.7c-5.29-5.8-7.93-14.11-7.93-24.94v-101.86h21.02Z"/>
  <path class="cls-2" d="M297.44,184.85v96.89h-18.92v-133.78h26.37l21.6,80.08v-80.08h18.73v133.78h-21.6l-26.18-96.89Z"/>
  <path class="cls-2" d="M363.57,147.96h64.98v19.11h-21.98v114.67h-21.02v-114.67h-21.98v-19.11Z"/>
  <path class="cls-2" d="M508.28,281.74h-21.21l-3.63-24.27h-25.8l-3.63,24.27h-19.3l21.4-133.78h30.77l21.4,133.78ZM460.31,239.32h20.26l-10.13-67.65-10.13,67.65Z"/>
  <path class="cls-2" d="M527.06,147.96h21.02v133.78h-21.02v-133.78Z"/>
  <path class="cls-2" d="M588.7,184.85v96.89h-18.92v-133.78h26.37l21.6,80.08v-80.08h18.73v133.78h-21.6l-26.18-96.89Z"/>
  <path class="cls-2" d="M656.68,180.07c0-10.83,2.58-19.14,7.74-24.94,5.16-5.8,12.9-8.7,23.22-8.7s18.06,2.9,23.22,8.7c5.16,5.8,7.74,14.11,7.74,24.94v4.2h-19.88v-5.54c0-4.84-.93-8.25-2.77-10.23-1.85-1.97-4.43-2.96-7.74-2.96s-5.89.99-7.74,2.96c-1.85,1.98-2.77,5.38-2.77,10.23,0,4.59,1.02,8.63,3.06,12.14,2.04,3.51,4.59,6.82,7.64,9.94,3.06,3.12,6.34,6.24,9.84,9.36,3.5,3.12,6.78,6.53,9.84,10.22,3.06,3.7,5.61,7.9,7.64,12.61,2.04,4.72,3.06,10.26,3.06,16.63,0,10.83-2.65,19.14-7.93,24.94-5.29,5.8-13.09,8.7-23.41,8.7s-18.13-2.9-23.41-8.7c-5.29-5.8-7.93-14.11-7.93-24.94v-8.22h19.88v9.56c0,4.84.99,8.22,2.96,10.13,1.97,1.91,4.62,2.87,7.93,2.87s5.95-.95,7.93-2.87c1.97-1.91,2.96-5.28,2.96-10.13,0-4.59-1.02-8.63-3.06-12.14-2.04-3.5-4.59-6.81-7.64-9.94-3.06-3.12-6.34-6.24-9.84-9.36-3.51-3.12-6.79-6.53-9.84-10.22-3.06-3.69-5.61-7.9-7.64-12.61-2.04-4.71-3.06-10.25-3.06-16.63Z"/>
</svg>