<?xml version="1.0" encoding="UTF-8"?>
<svg id="Layer_1" data-name="Layer 1" xmlns="http://www.w3.org/2000/svg" viewBox="0 0 1860 512">
  <defs>
    <style>
      .cls-1 {
        fill: #bdc3c7;
      }

      .cls-1, .cls-2, .cls-3, .cls-4, .cls-5 {
        stroke-width: 0px;
      }

      .cls-2 {
        fill: #4d4d4d;
      }

      .cls-3 {
        fill: #fff;
      }

      .cls-4 {
        fill: #414f6b;
      }

      .cls-5 {
        fill: #ecf0f1;
      }
    </style>
  </defs>
  <g>
    <g>
      <path class="cls-3" d="M507.1,256c0,19.53-2.23,38.54-6.45,56.79-92.48,49.67-114.57,46.73-233.72,46.73-77.02,0-156.86,112.9-202.92,58.32C27.13,374.13,4.9,317.66,4.9,256,4.9,117.32,117.32,4.9,256,4.9s251.1,112.42,251.1,251.1Z"/>
      <path class="cls-1" d="M256,507.1c119.14,0,218.91-82.98,244.65-194.31l-47.15-67.58-44.48,28.44-82.39-115.74-139.28,178.51-49.04-19.62-74.28,101.01c46.06,54.59,114.96,89.27,191.98,89.27Z"/>
      <polygon class="cls-4" points="326.62 157.92 332.61 316.81 409.01 273.66 326.62 157.92"/>
      <polygon class="cls-5" points="92.8 418.4 138.3 430.17 182.55 484.6 263.46 413.98 231.09 338.95 326.62 157.92 187.34 336.43 138.3 316.81 89.26 383.51 92.8 418.4"/>
      <polygon class="cls-4" points="138.3 316.81 138.3 355.07 159.01 346.31 148.65 390.44 202.65 316.81 138.3 316.81"/>
      <polygon class="cls-4" points="309.07 411.04 347.32 353.63 414.99 332.51 447.36 399 409.01 371.77 332.61 452.23 309.07 411.04"/>
      <polygon class="cls-4" points="292.89 262.45 256 337.48 282.33 380.15 292.89 262.45"/>
      <polygon class="cls-5" points="428.24 287.46 447.36 344.84 470.9 321.3 428.24 287.46"/>
      <polygon class="cls-1" points="182.55 415.45 207.94 380.15 195.24 424.28 182.55 415.45"/>
    </g>
    <path class="cls-1" d="M256,512c-68.38,0-132.67-26.63-181.02-74.98C26.63,388.67,0,324.38,0,256S26.63,123.33,74.98,74.98C123.33,26.63,187.62,0,256,0s132.67,26.63,181.02,74.98c48.35,48.35,74.98,112.64,74.98,181.02s-26.63,132.67-74.98,181.02c-48.35,48.35-112.64,74.98-181.02,74.98ZM256,9.81C120.25,9.81,9.81,120.25,9.81,256s110.44,246.19,246.19,246.19,246.19-110.44,246.19-246.19S391.75,9.81,256,9.81Z"/>
  </g>
  <g>
    <path class="cls-2" d="M624.3,14.42h34.19v186.49h56.26v31.08h-90.45V14.42Z"/>
    <path class="cls-2" d="M738.15,66.64c0-17.61,4.45-31.13,13.37-40.56,8.91-9.43,21.76-14.14,38.54-14.14s29.63,4.72,38.54,14.14c8.91,9.43,13.36,22.95,13.36,40.56v113.14c0,17.62-4.46,31.14-13.36,40.56-8.91,9.43-21.76,14.14-38.54,14.14s-29.64-4.71-38.54-14.14c-8.91-9.43-13.37-22.95-13.37-40.56v-113.14ZM772.34,181.95c0,7.88,1.6,13.42,4.82,16.63,3.21,3.22,7.51,4.82,12.9,4.82s9.68-1.6,12.9-4.82c3.21-3.21,4.82-8.75,4.82-16.63v-117.49c0-7.87-1.61-13.41-4.82-16.63-3.21-3.21-7.51-4.82-12.9-4.82s-9.69,1.61-12.9,4.82c-3.22,3.22-4.82,8.76-4.82,16.63v117.49Z"/>
    <path class="cls-2" d="M868.73,66.64c0-17.61,4.2-31.13,12.59-40.56,8.39-9.43,20.98-14.14,37.77-14.14s29.37,4.72,37.77,14.14c8.39,9.43,12.59,22.95,12.59,40.56v6.84h-32.32v-9.01c0-7.87-1.51-13.41-4.51-16.63-3.01-3.21-7.2-4.82-12.59-4.82s-9.59,1.61-12.59,4.82c-3.01,3.22-4.51,8.76-4.51,16.63,0,7.46,1.66,14.04,4.97,19.74,3.31,5.7,7.46,11.09,12.43,16.16,4.97,5.08,10.31,10.15,16.01,15.23,5.7,5.08,11.03,10.62,16.01,16.63,4.97,6.01,9.12,12.85,12.43,20.51,3.31,7.67,4.97,16.68,4.97,27.04,0,17.62-4.3,31.14-12.9,40.56-8.6,9.43-21.29,14.14-38.08,14.14s-29.48-4.71-38.08-14.14c-8.6-9.43-12.9-22.95-12.9-40.56v-13.36h32.32v15.54c0,7.88,1.6,13.36,4.82,16.47,3.21,3.11,7.51,4.66,12.9,4.66s9.68-1.55,12.9-4.66c3.21-3.11,4.82-8.6,4.82-16.47,0-7.46-1.66-14.04-4.97-19.74-3.32-5.7-7.46-11.08-12.43-16.16-4.97-5.08-10.31-10.15-16.01-15.23-5.7-5.08-11.03-10.62-16.01-16.63-4.97-6.01-9.12-12.85-12.43-20.51-3.32-7.66-4.97-16.68-4.97-27.04Z"/>
    <path class="cls-2" d="M1109.37,231.99h-34.5l-5.91-39.47h-41.96l-5.9,39.47h-31.39l34.81-217.58h50.04l34.81,217.58ZM1031.35,162.99h32.95l-16.47-110.03-16.47,110.03Z"/>
    <path class="cls-2" d="M1165.59,74.41v157.59h-30.77V14.42h42.89l35.12,130.23V14.42h30.46v217.58h-35.12l-42.58-157.59Z"/>
    <path class="cls-2" d="M1326.1,110.77h47.87v69c0,17.62-4.3,31.14-12.9,40.56-8.6,9.43-21.29,14.14-38.07,14.14s-29.48-4.71-38.08-14.14c-8.6-9.43-12.9-22.95-12.9-40.56v-113.14c0-17.61,4.3-31.13,12.9-40.56,8.6-9.43,21.29-14.14,38.08-14.14s29.47,4.72,38.07,14.14c8.6,9.43,12.9,22.95,12.9,40.56v21.14h-32.33v-23.31c0-7.87-1.61-13.41-4.82-16.63-3.21-3.21-7.51-4.82-12.9-4.82s-9.69,1.61-12.9,4.82c-3.22,3.22-4.82,8.76-4.82,16.63v117.49c0,7.88,1.6,13.36,4.82,16.47,3.21,3.11,7.51,4.66,12.9,4.66s9.68-1.55,12.9-4.66c3.21-3.11,4.82-8.6,4.82-16.47v-40.1h-15.54v-31.08Z"/>
    <path class="cls-2" d="M1436.79,106.11h46.93v31.08h-46.93v63.72h59.06v31.08h-93.25V14.42h93.25v31.08h-59.06v60.61Z"/>
    <path class="cls-2" d="M1523.63,14.42h34.19v186.49h56.26v31.08h-90.45V14.42Z"/>
    <path class="cls-2" d="M1673.45,106.11h46.93v31.08h-46.93v63.72h59.06v31.08h-93.25V14.42h93.25v31.08h-59.06v60.61Z"/>
    <path class="cls-2" d="M1758.36,66.64c0-17.61,4.2-31.13,12.59-40.56,8.39-9.43,20.98-14.14,37.77-14.14s29.37,4.72,37.77,14.14c8.39,9.43,12.59,22.95,12.59,40.56v6.84h-32.32v-9.01c0-7.87-1.51-13.41-4.51-16.63-3.01-3.21-7.2-4.82-12.59-4.82s-9.59,1.61-12.59,4.82c-3.01,3.22-4.51,8.76-4.51,16.63,0,7.46,1.66,14.04,4.97,19.74,3.31,5.7,7.46,11.09,12.43,16.16,4.97,5.08,10.31,10.15,16.01,15.23,5.7,5.08,11.03,10.62,16.01,16.63,4.97,6.01,9.12,12.85,12.43,20.51,3.31,7.67,4.97,16.68,4.97,27.04,0,17.62-4.3,31.14-12.9,40.56-8.6,9.43-21.29,14.14-38.08,14.14s-29.48-4.71-38.08-14.14c-8.6-9.43-12.9-22.95-12.9-40.56v-13.36h32.32v15.54c0,7.88,1.6,13.36,4.82,16.47,3.21,3.11,7.51,4.66,12.9,4.66s9.68-1.55,12.9-4.66c3.21-3.11,4.82-8.6,4.82-16.47,0-7.46-1.66-14.04-4.97-19.74-3.32-5.7-7.46-11.08-12.43-16.16-4.97-5.08-10.31-10.15-16.01-15.23-5.7-5.08-11.03-10.62-16.01-16.63-4.97-6.01-9.12-12.85-12.43-20.51-3.32-7.66-4.97-16.68-4.97-27.04Z"/>
    <path class="cls-4" d="M701.71,430.3l24.68-163.57h50.35v230.37h-34.23v-165.21l-25.01,165.21h-34.23l-26.99-162.91v162.91h-31.59v-230.37h50.35l26.66,163.57Z"/>
    <path class="cls-4" d="M812.75,322.02c0-18.65,4.72-32.96,14.15-42.95,9.43-9.98,23.04-14.98,40.81-14.98s31.37,4.99,40.81,14.98c9.43,9.99,14.15,24.3,14.15,42.95v119.79c0,18.65-4.72,32.97-14.15,42.95-9.44,9.99-23.04,14.98-40.81,14.98s-31.38-4.99-40.81-14.98c-9.44-9.98-14.15-24.3-14.15-42.95v-119.79ZM848.95,444.12c0,8.34,1.7,14.21,5.1,17.61,3.4,3.4,7.95,5.1,13.66,5.1s10.25-1.7,13.66-5.1c3.4-3.4,5.1-9.27,5.1-17.61v-124.4c0-8.34-1.7-14.2-5.1-17.61-3.4-3.4-7.96-5.1-13.66-5.1s-10.26,1.7-13.66,5.1c-3.4,3.4-5.1,9.27-5.1,17.61v124.4Z"/>
    <path class="cls-4" d="M993.53,266.73v177.72c0,8.34,1.7,14.15,5.1,17.44,3.4,3.29,7.95,4.94,13.66,4.94s10.25-1.65,13.66-4.94c3.4-3.29,5.1-9.1,5.1-17.44v-177.72h34.23v175.41c0,18.65-4.56,32.97-13.66,42.95-9.11,9.99-22.54,14.98-40.32,14.98s-31.21-4.99-40.32-14.98c-9.11-9.98-13.66-24.3-13.66-42.95v-175.41h36.2Z"/>
    <path class="cls-4" d="M1134.42,330.25v166.86h-32.58v-230.37h45.42l37.19,137.9v-137.9h32.25v230.37h-37.19l-45.09-166.86Z"/>
    <path class="cls-4" d="M1248.29,266.73h111.89v32.91h-37.85v197.46h-36.2v-197.46h-37.85v-32.91Z"/>
    <path class="cls-4" d="M1497.49,497.11h-36.53l-6.25-41.8h-44.43l-6.25,41.8h-33.24l36.86-230.37h52.99l36.86,230.37ZM1414.88,424.05h34.89l-17.44-116.5-17.44,116.5Z"/>
    <path class="cls-4" d="M1529.84,266.73h36.2v230.37h-36.2v-230.37Z"/>
    <path class="cls-4" d="M1635.98,330.25v166.86h-32.58v-230.37h45.42l37.19,137.9v-137.9h32.25v230.37h-37.19l-45.09-166.86Z"/>
    <path class="cls-4" d="M1753.04,322.02c0-18.65,4.44-32.96,13.33-42.95,8.89-9.98,22.22-14.98,39.99-14.98s31.1,4.99,39.99,14.98c8.89,9.99,13.33,24.3,13.33,42.95v7.24h-34.23v-9.54c0-8.34-1.59-14.2-4.77-17.61-3.18-3.4-7.63-5.1-13.33-5.1s-10.15,1.7-13.33,5.1c-3.18,3.4-4.77,9.27-4.77,17.61,0,7.9,1.75,14.87,5.27,20.9,3.51,6.04,7.9,11.74,13.16,17.11,5.27,5.38,10.91,10.75,16.95,16.13,6.03,5.38,11.68,11.25,16.95,17.61,5.27,6.37,9.65,13.61,13.16,21.72,3.51,8.12,5.27,17.66,5.27,28.63,0,18.65-4.55,32.97-13.66,42.95-9.11,9.99-22.54,14.98-40.32,14.98s-31.21-4.99-40.32-14.98c-9.11-9.98-13.66-24.3-13.66-42.95v-14.15h34.23v16.46c0,8.34,1.7,14.15,5.1,17.44,3.4,3.29,7.95,4.94,13.66,4.94s10.25-1.64,13.66-4.94c3.4-3.29,5.1-9.1,5.1-17.44,0-7.9-1.76-14.86-5.27-20.9-3.51-6.03-7.9-11.73-13.16-17.11-5.27-5.37-10.92-10.75-16.95-16.13-6.04-5.37-11.68-11.24-16.95-17.61-5.27-6.36-9.66-13.6-13.16-21.72-3.51-8.12-5.27-17.66-5.27-28.63Z"/>
  </g>
</svg>