<?xml version="1.0" encoding="UTF-8"?>
<svg id="Layer_1" data-name="Layer 1" xmlns="http://www.w3.org/2000/svg" viewBox="0 0 1860 512">
  <defs>
    <style>
      .cls-1 {
        fill: #495a7b;
      }

      .cls-1, .cls-2, .cls-3, .cls-4 {
        stroke-width: 0px;
      }

      .cls-2 {
        fill: #5c6f94;
      }

      .cls-3 {
        fill: #192542;
      }

      .cls-4 {
        fill: #63769d;
      }
    </style>
  </defs>
  <g>
    <path class="cls-4" d="M624.3,14.42h34.19v186.49h56.26v31.08h-90.45V14.42Z"/>
    <path class="cls-4" d="M738.15,66.64c0-17.61,4.45-31.13,13.37-40.56,8.91-9.43,21.76-14.14,38.54-14.14s29.63,4.72,38.54,14.14c8.91,9.43,13.36,22.95,13.36,40.56v113.14c0,17.62-4.46,31.14-13.36,40.56-8.91,9.43-21.76,14.14-38.54,14.14s-29.64-4.71-38.54-14.14c-8.91-9.43-13.37-22.95-13.37-40.56v-113.14ZM772.34,181.95c0,7.88,1.6,13.42,4.82,16.63,3.21,3.22,7.51,4.82,12.9,4.82s9.68-1.6,12.9-4.82c3.21-3.21,4.82-8.75,4.82-16.63v-117.49c0-7.87-1.61-13.41-4.82-16.63-3.21-3.21-7.51-4.82-12.9-4.82s-9.69,1.61-12.9,4.82c-3.22,3.22-4.82,8.76-4.82,16.63v117.49Z"/>
    <path class="cls-4" d="M868.73,66.64c0-17.61,4.2-31.13,12.59-40.56,8.39-9.43,20.98-14.14,37.77-14.14s29.37,4.72,37.77,14.14c8.39,9.43,12.59,22.95,12.59,40.56v6.84h-32.32v-9.01c0-7.87-1.51-13.41-4.51-16.63-3.01-3.21-7.2-4.82-12.59-4.82s-9.59,1.61-12.59,4.82c-3.01,3.22-4.51,8.76-4.51,16.63,0,7.46,1.66,14.04,4.97,19.74,3.31,5.7,7.46,11.09,12.43,16.16,4.97,5.08,10.31,10.15,16.01,15.23,5.7,5.08,11.03,10.62,16.01,16.63,4.97,6.01,9.12,12.85,12.43,20.51,3.31,7.67,4.97,16.68,4.97,27.04,0,17.62-4.3,31.14-12.9,40.56-8.6,9.43-21.29,14.14-38.08,14.14s-29.48-4.71-38.08-14.14c-8.6-9.43-12.9-22.95-12.9-40.56v-13.36h32.32v15.54c0,7.88,1.6,13.36,4.82,16.47,3.21,3.11,7.51,4.66,12.9,4.66s9.68-1.55,12.9-4.66c3.21-3.11,4.82-8.6,4.82-16.47,0-7.46-1.66-14.04-4.97-19.74-3.32-5.7-7.46-11.08-12.43-16.16-4.97-5.08-10.31-10.15-16.01-15.23-5.7-5.08-11.03-10.62-16.01-16.63-4.97-6.01-9.12-12.85-12.43-20.51-3.32-7.66-4.97-16.68-4.97-27.04Z"/>
    <path class="cls-4" d="M1109.37,231.99h-34.5l-5.91-39.47h-41.96l-5.9,39.47h-31.39l34.81-217.58h50.04l34.81,217.58ZM1031.35,162.99h32.95l-16.47-110.03-16.47,110.03Z"/>
    <path class="cls-4" d="M1165.59,74.41v157.59h-30.77V14.42h42.89l35.12,130.23V14.42h30.46v217.58h-35.12l-42.58-157.59Z"/>
    <path class="cls-4" d="M1326.1,110.77h47.87v69c0,17.62-4.3,31.14-12.9,40.56-8.6,9.43-21.29,14.14-38.07,14.14s-29.48-4.71-38.08-14.14c-8.6-9.43-12.9-22.95-12.9-40.56v-113.14c0-17.61,4.3-31.13,12.9-40.56,8.6-9.43,21.29-14.14,38.08-14.14s29.47,4.72,38.07,14.14c8.6,9.43,12.9,22.95,12.9,40.56v21.14h-32.33v-23.31c0-7.87-1.61-13.41-4.82-16.63-3.21-3.21-7.51-4.82-12.9-4.82s-9.69,1.61-12.9,4.82c-3.22,3.22-4.82,8.76-4.82,16.63v117.49c0,7.88,1.6,13.36,4.82,16.47,3.21,3.11,7.51,4.66,12.9,4.66s9.68-1.55,12.9-4.66c3.21-3.11,4.82-8.6,4.82-16.47v-40.1h-15.54v-31.08Z"/>
    <path class="cls-4" d="M1436.79,106.11h46.93v31.08h-46.93v63.72h59.06v31.08h-93.25V14.42h93.25v31.08h-59.06v60.61Z"/>
    <path class="cls-4" d="M1523.63,14.42h34.19v186.49h56.26v31.08h-90.45V14.42Z"/>
    <path class="cls-4" d="M1673.45,106.11h46.93v31.08h-46.93v63.72h59.06v31.08h-93.25V14.42h93.25v31.08h-59.06v60.61Z"/>
    <path class="cls-4" d="M1758.36,66.64c0-17.61,4.2-31.13,12.59-40.56,8.39-9.43,20.98-14.14,37.77-14.14s29.37,4.72,37.77,14.14c8.39,9.43,12.59,22.95,12.59,40.56v6.84h-32.32v-9.01c0-7.87-1.51-13.41-4.51-16.63-3.01-3.21-7.2-4.82-12.59-4.82s-9.59,1.61-12.59,4.82c-3.01,3.22-4.51,8.76-4.51,16.63,0,7.46,1.66,14.04,4.97,19.74,3.31,5.7,7.46,11.09,12.43,16.16,4.97,5.08,10.31,10.15,16.01,15.23,5.7,5.08,11.03,10.62,16.01,16.63,4.97,6.01,9.12,12.85,12.43,20.51,3.31,7.67,4.97,16.68,4.97,27.04,0,17.62-4.3,31.14-12.9,40.56-8.6,9.43-21.29,14.14-38.08,14.14s-29.48-4.71-38.08-14.14c-8.6-9.43-12.9-22.95-12.9-40.56v-13.36h32.32v15.54c0,7.88,1.6,13.36,4.82,16.47,3.21,3.11,7.51,4.66,12.9,4.66s9.68-1.55,12.9-4.66c3.21-3.11,4.82-8.6,4.82-16.47,0-7.46-1.66-14.04-4.97-19.74-3.32-5.7-7.46-11.08-12.43-16.16-4.97-5.08-10.31-10.15-16.01-15.23-5.7-5.08-11.03-10.62-16.01-16.63-4.97-6.01-9.12-12.85-12.43-20.51-3.32-7.66-4.97-16.68-4.97-27.04Z"/>
    <path class="cls-4" d="M701.71,430.3l24.68-163.57h50.35v230.37h-34.23v-165.21l-25.01,165.21h-34.23l-26.99-162.91v162.91h-31.59v-230.37h50.35l26.66,163.57Z"/>
    <path class="cls-4" d="M812.75,322.02c0-18.65,4.72-32.96,14.15-42.95,9.43-9.98,23.04-14.98,40.81-14.98s31.37,4.99,40.81,14.98c9.43,9.99,14.15,24.3,14.15,42.95v119.79c0,18.65-4.72,32.97-14.15,42.95-9.44,9.99-23.04,14.98-40.81,14.98s-31.38-4.99-40.81-14.98c-9.44-9.98-14.15-24.3-14.15-42.95v-119.79ZM848.95,444.12c0,8.34,1.7,14.21,5.1,17.61,3.4,3.4,7.95,5.1,13.66,5.1s10.25-1.7,13.66-5.1c3.4-3.4,5.1-9.27,5.1-17.61v-124.4c0-8.34-1.7-14.2-5.1-17.61-3.4-3.4-7.96-5.1-13.66-5.1s-10.26,1.7-13.66,5.1c-3.4,3.4-5.1,9.27-5.1,17.61v124.4Z"/>
    <path class="cls-4" d="M993.53,266.73v177.72c0,8.34,1.7,14.15,5.1,17.44,3.4,3.29,7.95,4.94,13.66,4.94s10.25-1.65,13.66-4.94c3.4-3.29,5.1-9.1,5.1-17.44v-177.72h34.23v175.41c0,18.65-4.56,32.97-13.66,42.95-9.11,9.99-22.54,14.98-40.32,14.98s-31.21-4.99-40.32-14.98c-9.11-9.98-13.66-24.3-13.66-42.95v-175.41h36.2Z"/>
    <path class="cls-4" d="M1134.42,330.25v166.86h-32.58v-230.37h45.42l37.19,137.9v-137.9h32.25v230.37h-37.19l-45.09-166.86Z"/>
    <path class="cls-4" d="M1248.29,266.73h111.89v32.91h-37.85v197.46h-36.2v-197.46h-37.85v-32.91Z"/>
    <path class="cls-4" d="M1497.49,497.11h-36.53l-6.25-41.8h-44.43l-6.25,41.8h-33.24l36.86-230.37h52.99l36.86,230.37ZM1414.88,424.05h34.89l-17.44-116.5-17.44,116.5Z"/>
    <path class="cls-4" d="M1529.84,266.73h36.2v230.37h-36.2v-230.37Z"/>
    <path class="cls-4" d="M1635.98,330.25v166.86h-32.58v-230.37h45.42l37.19,137.9v-137.9h32.25v230.37h-37.19l-45.09-166.86Z"/>
    <path class="cls-4" d="M1753.04,322.02c0-18.65,4.44-32.96,13.33-42.95,8.89-9.98,22.22-14.98,39.99-14.98s31.1,4.99,39.99,14.98c8.89,9.99,13.33,24.3,13.33,42.95v7.24h-34.23v-9.54c0-8.34-1.59-14.2-4.77-17.61-3.18-3.4-7.63-5.1-13.33-5.1s-10.15,1.7-13.33,5.1c-3.18,3.4-4.77,9.27-4.77,17.61,0,7.9,1.75,14.87,5.27,20.9,3.51,6.04,7.9,11.74,13.16,17.11,5.27,5.38,10.91,10.75,16.95,16.13,6.03,5.38,11.68,11.25,16.95,17.61,5.27,6.37,9.65,13.61,13.16,21.72,3.51,8.12,5.27,17.66,5.27,28.63,0,18.65-4.55,32.97-13.66,42.95-9.11,9.99-22.54,14.98-40.32,14.98s-31.21-4.99-40.32-14.98c-9.11-9.98-13.66-24.3-13.66-42.95v-14.15h34.23v16.46c0,8.34,1.7,14.15,5.1,17.44,3.4,3.29,7.95,4.94,13.66,4.94s10.25-1.64,13.66-4.94c3.4-3.29,5.1-9.1,5.1-17.44,0-7.9-1.76-14.86-5.27-20.9-3.51-6.03-7.9-11.73-13.16-17.11-5.27-5.37-10.92-10.75-16.95-16.13-6.04-5.37-11.68-11.24-16.95-17.61-5.27-6.36-9.66-13.6-13.16-21.72-3.51-8.12-5.27-17.66-5.27-28.63Z"/>
  </g>
  <g>
    <circle class="cls-4" cx="256" cy="256" r="256"/>
    <g>
      <path class="cls-1" d="M334.1,456.07l-24-42,39-58.54,69-21.53,33,67.79-39.1-27.76-77.9,82.03M451.1,346.57l-19.5-58.5,43.5,34.5-24,24M293.61,262.58h0l-10.76,119.99-26.85-43.5,37.61-76.5M328,156h0l-97.39,184.57,33,76.5-82.5,72-45.11-55.5-46.38-12-3.62-35.57,50-68-75.73,102.99c.35.41.7.83,1.05,1.24,46.95,54.94,116.74,89.77,194.67,89.77h0c121.46,0,223.18-84.61,249.42-198.1,0,0,0,0,0,0l-48.08-68.9-45.35,29-77.9,44-6.1-162"/>
      <polyline class="cls-3" points="328 156 328 156 334.1 318 412 274 328 156"/>
      <path class="cls-2" d="M194.06,427.57l-12.94-9,25.89-36-12.94,45M328,156l-126.4,162.01-55.04,75.06,10.56-45-21.11,8.93v-39l-50,68,3.62,35.57,46.38,12,45.11,55.5,82.5-72-33-76.5,97.39-184.57"/>
      <polyline class="cls-3" points="201.6 318 136 318 136 357 157.11 348.07 146.56 393.07 201.6 318.01 201.6 318"/>
      <polyline class="cls-3" points="418.1 334 349.1 355.53 310.1 414.07 334.1 456.07 412 374.03 451.1 401.79 418.1 334"/>
      <polyline class="cls-3" points="293.61 262.58 256 339.07 282.85 382.57 293.61 262.58"/>
      <polyline class="cls-2" points="431.6 288.08 451.1 346.57 475.1 322.57 431.6 288.08"/>
      <polyline class="cls-1" points="207 382.57 181.11 418.57 194.06 427.57 207 382.57"/>
    </g>
  </g>
</svg>